<svg xmlns="http://www.w3.org/2000/svg" width="1900" height="1200" viewBox="0 0 1900 1200">
<rect width="1900" height="1200" fill="white" />
<defs>
<clipPath id="clip_a1"><rect x="118.00" y="30.00" width="864.00" height="250.00" /></clipPath>
<clipPath id="clip_a2"><rect x="118.00" y="320.00" width="864.00" height="252.00" /></clipPath>
<clipPath id="clip_b1"><rect x="1088.00" y="30.00" width="778.00" height="130.00" /></clipPath>
<clipPath id="clip_b2"><rect x="1088.00" y="230.00" width="778.00" height="130.00" /></clipPath>
<clipPath id="clip_b3"><rect x="1088.00" y="430.00" width="778.00" height="142.00" /></clipPath>
<clipPath id="clip_c"><rect x="128.00" y="684.00" width="1734.00" height="418.00" /></clipPath>
</defs>
<line x1="157.27" y1="30.00" x2="157.27" y2="280.00" stroke="#d1d1d1" stroke-width="1" />
<line x1="255.45" y1="30.00" x2="255.45" y2="280.00" stroke="#d1d1d1" stroke-width="1" />
<line x1="353.64" y1="30.00" x2="353.64" y2="280.00" stroke="#d1d1d1" stroke-width="1" />
<line x1="451.82" y1="30.00" x2="451.82" y2="280.00" stroke="#d1d1d1" stroke-width="1" />
<line x1="550.00" y1="30.00" x2="550.00" y2="280.00" stroke="#d1d1d1" stroke-width="1" />
<line x1="648.18" y1="30.00" x2="648.18" y2="280.00" stroke="#d1d1d1" stroke-width="1" />
<line x1="746.36" y1="30.00" x2="746.36" y2="280.00" stroke="#d1d1d1" stroke-width="1" />
<line x1="844.55" y1="30.00" x2="844.55" y2="280.00" stroke="#d1d1d1" stroke-width="1" />
<line x1="942.73" y1="30.00" x2="942.73" y2="280.00" stroke="#d1d1d1" stroke-width="1" />
<line x1="118.00" y1="268.43" x2="982.00" y2="268.43" stroke="#d1d1d1" stroke-width="1" />
<line x1="118.00" y1="222.13" x2="982.00" y2="222.13" stroke="#d1d1d1" stroke-width="1" />
<line x1="118.00" y1="175.83" x2="982.00" y2="175.83" stroke="#d1d1d1" stroke-width="1" />
<line x1="118.00" y1="129.54" x2="982.00" y2="129.54" stroke="#d1d1d1" stroke-width="1" />
<line x1="118.00" y1="83.24" x2="982.00" y2="83.24" stroke="#d1d1d1" stroke-width="1" />
<line x1="118.00" y1="36.94" x2="982.00" y2="36.94" stroke="#d1d1d1" stroke-width="1" />
<rect x="118.00" y="30.00" width="864.00" height="250.00" fill="none" stroke="#c9c9c9" stroke-width="2" />
<text x="108.00" y="274.43" font-family="Arial" font-size="16" fill="#555555" text-anchor="end">0</text>
<text x="108.00" y="228.13" font-family="Arial" font-size="16" fill="#555555" text-anchor="end">2</text>
<text x="108.00" y="181.83" font-family="Arial" font-size="16" fill="#555555" text-anchor="end">4</text>
<text x="108.00" y="135.54" font-family="Arial" font-size="16" fill="#555555" text-anchor="end">6</text>
<text x="108.00" y="89.24" font-family="Arial" font-size="16" fill="#555555" text-anchor="end">8</text>
<text x="108.00" y="42.94" font-family="Arial" font-size="16" fill="#555555" text-anchor="end">10</text>
<text x="62.00" y="155.00" font-family="Arial" font-size="20" fill="black" text-anchor="middle" transform="rotate(-90 62.00 155.00)">Dose (Gy)</text>
<rect x="126.00" y="38.00" width="52.00" height="46.00" fill="white" stroke="black" stroke-width="1.2" />
<text x="152.00" y="69.00" font-family="Arial" font-size="20" font-weight="700" fill="black" text-anchor="middle">(a)</text>
<line x1="157.27" y1="320.00" x2="157.27" y2="572.00" stroke="#d1d1d1" stroke-width="1" />
<line x1="255.45" y1="320.00" x2="255.45" y2="572.00" stroke="#d1d1d1" stroke-width="1" />
<line x1="353.64" y1="320.00" x2="353.64" y2="572.00" stroke="#d1d1d1" stroke-width="1" />
<line x1="451.82" y1="320.00" x2="451.82" y2="572.00" stroke="#d1d1d1" stroke-width="1" />
<line x1="550.00" y1="320.00" x2="550.00" y2="572.00" stroke="#d1d1d1" stroke-width="1" />
<line x1="648.18" y1="320.00" x2="648.18" y2="572.00" stroke="#d1d1d1" stroke-width="1" />
<line x1="746.36" y1="320.00" x2="746.36" y2="572.00" stroke="#d1d1d1" stroke-width="1" />
<line x1="844.55" y1="320.00" x2="844.55" y2="572.00" stroke="#d1d1d1" stroke-width="1" />
<line x1="942.73" y1="320.00" x2="942.73" y2="572.00" stroke="#d1d1d1" stroke-width="1" />
<line x1="118.00" y1="572.00" x2="982.00" y2="572.00" stroke="#d1d1d1" stroke-width="1" />
<line x1="118.00" y1="522.59" x2="982.00" y2="522.59" stroke="#d1d1d1" stroke-width="1" />
<line x1="118.00" y1="473.18" x2="982.00" y2="473.18" stroke="#d1d1d1" stroke-width="1" />
<line x1="118.00" y1="423.76" x2="982.00" y2="423.76" stroke="#d1d1d1" stroke-width="1" />
<line x1="118.00" y1="374.35" x2="982.00" y2="374.35" stroke="#d1d1d1" stroke-width="1" />
<line x1="118.00" y1="324.94" x2="982.00" y2="324.94" stroke="#d1d1d1" stroke-width="1" />
<rect x="118.00" y="320.00" width="864.00" height="252.00" fill="none" stroke="#c9c9c9" stroke-width="2" />
<text x="108.00" y="578.00" font-family="Arial" font-size="16" fill="#555555" text-anchor="end">0</text>
<text x="108.00" y="528.59" font-family="Arial" font-size="16" fill="#555555" text-anchor="end">0.2</text>
<text x="108.00" y="479.18" font-family="Arial" font-size="16" fill="#555555" text-anchor="end">0.4</text>
<text x="108.00" y="429.76" font-family="Arial" font-size="16" fill="#555555" text-anchor="end">0.6</text>
<text x="108.00" y="380.35" font-family="Arial" font-size="16" fill="#555555" text-anchor="end">0.8</text>
<text x="108.00" y="330.94" font-family="Arial" font-size="16" fill="#555555" text-anchor="end">1</text>
<text x="157.27" y="602.00" font-family="Arial" font-size="16" fill="#555555" text-anchor="middle">-80</text>
<text x="255.45" y="602.00" font-family="Arial" font-size="16" fill="#555555" text-anchor="middle">-60</text>
<text x="353.64" y="602.00" font-family="Arial" font-size="16" fill="#555555" text-anchor="middle">-40</text>
<text x="451.82" y="602.00" font-family="Arial" font-size="16" fill="#555555" text-anchor="middle">-20</text>
<text x="550.00" y="602.00" font-family="Arial" font-size="16" fill="#555555" text-anchor="middle">0</text>
<text x="648.18" y="602.00" font-family="Arial" font-size="16" fill="#555555" text-anchor="middle">20</text>
<text x="746.36" y="602.00" font-family="Arial" font-size="16" fill="#555555" text-anchor="middle">40</text>
<text x="844.55" y="602.00" font-family="Arial" font-size="16" fill="#555555" text-anchor="middle">60</text>
<text x="942.73" y="602.00" font-family="Arial" font-size="16" fill="#555555" text-anchor="middle">80</text>
<text x="550.00" y="622.00" font-family="Arial" font-size="20" fill="black" text-anchor="middle">Distance from field edge x (mm)</text>
<text x="62.00" y="446.00" font-family="Arial" font-size="20" fill="black" text-anchor="middle" transform="rotate(-90 62.00 446.00)">Cell survival</text>
<line x1="1123.36" y1="30.00" x2="1123.36" y2="160.00" stroke="#d1d1d1" stroke-width="1" />
<line x1="1211.77" y1="30.00" x2="1211.77" y2="160.00" stroke="#d1d1d1" stroke-width="1" />
<line x1="1300.18" y1="30.00" x2="1300.18" y2="160.00" stroke="#d1d1d1" stroke-width="1" />
<line x1="1388.59" y1="30.00" x2="1388.59" y2="160.00" stroke="#d1d1d1" stroke-width="1" />
<line x1="1477.00" y1="30.00" x2="1477.00" y2="160.00" stroke="#d1d1d1" stroke-width="1" />
<line x1="1565.41" y1="30.00" x2="1565.41" y2="160.00" stroke="#d1d1d1" stroke-width="1" />
<line x1="1653.82" y1="30.00" x2="1653.82" y2="160.00" stroke="#d1d1d1" stroke-width="1" />
<line x1="1742.23" y1="30.00" x2="1742.23" y2="160.00" stroke="#d1d1d1" stroke-width="1" />
<line x1="1830.64" y1="30.00" x2="1830.64" y2="160.00" stroke="#d1d1d1" stroke-width="1" />
<line x1="1088.00" y1="160.00" x2="1866.00" y2="160.00" stroke="#d1d1d1" stroke-width="1" />
<line x1="1088.00" y1="98.10" x2="1866.00" y2="98.10" stroke="#d1d1d1" stroke-width="1" />
<line x1="1088.00" y1="36.19" x2="1866.00" y2="36.19" stroke="#d1d1d1" stroke-width="1" />
<rect x="1088.00" y="30.00" width="778.00" height="130.00" fill="none" stroke="#c9c9c9" stroke-width="2" />
<text x="1078.00" y="166.00" font-family="Arial" font-size="16" fill="#555555" text-anchor="end">0</text>
<text x="1078.00" y="104.10" font-family="Arial" font-size="16" fill="#555555" text-anchor="end">0.5</text>
<text x="1078.00" y="42.19" font-family="Arial" font-size="16" fill="#555555" text-anchor="end">1</text>
<text x="1052.00" y="95.00" font-family="Arial" font-size="20" fill="black" text-anchor="middle" transform="rotate(-90 1052.00 95.00)">Survival</text>
<rect x="1096.00" y="38.00" width="52.00" height="46.00" fill="white" stroke="black" stroke-width="1.2" />
<text x="1122.00" y="69.00" font-family="Arial" font-size="20" font-weight="700" fill="black" text-anchor="middle">(b)</text>
<line x1="1123.36" y1="230.00" x2="1123.36" y2="360.00" stroke="#d1d1d1" stroke-width="1" />
<line x1="1211.77" y1="230.00" x2="1211.77" y2="360.00" stroke="#d1d1d1" stroke-width="1" />
<line x1="1300.18" y1="230.00" x2="1300.18" y2="360.00" stroke="#d1d1d1" stroke-width="1" />
<line x1="1388.59" y1="230.00" x2="1388.59" y2="360.00" stroke="#d1d1d1" stroke-width="1" />
<line x1="1477.00" y1="230.00" x2="1477.00" y2="360.00" stroke="#d1d1d1" stroke-width="1" />
<line x1="1565.41" y1="230.00" x2="1565.41" y2="360.00" stroke="#d1d1d1" stroke-width="1" />
<line x1="1653.82" y1="230.00" x2="1653.82" y2="360.00" stroke="#d1d1d1" stroke-width="1" />
<line x1="1742.23" y1="230.00" x2="1742.23" y2="360.00" stroke="#d1d1d1" stroke-width="1" />
<line x1="1830.64" y1="230.00" x2="1830.64" y2="360.00" stroke="#d1d1d1" stroke-width="1" />
<line x1="1088.00" y1="360.00" x2="1866.00" y2="360.00" stroke="#d1d1d1" stroke-width="1" />
<line x1="1088.00" y1="298.10" x2="1866.00" y2="298.10" stroke="#d1d1d1" stroke-width="1" />
<line x1="1088.00" y1="236.19" x2="1866.00" y2="236.19" stroke="#d1d1d1" stroke-width="1" />
<rect x="1088.00" y="230.00" width="778.00" height="130.00" fill="none" stroke="#c9c9c9" stroke-width="2" />
<text x="1078.00" y="366.00" font-family="Arial" font-size="16" fill="#555555" text-anchor="end">0</text>
<text x="1078.00" y="304.10" font-family="Arial" font-size="16" fill="#555555" text-anchor="end">0.5</text>
<text x="1078.00" y="242.19" font-family="Arial" font-size="16" fill="#555555" text-anchor="end">1</text>
<text x="1052.00" y="295.00" font-family="Arial" font-size="20" fill="black" text-anchor="middle" transform="rotate(-90 1052.00 295.00)">Survival</text>
<line x1="1123.36" y1="430.00" x2="1123.36" y2="572.00" stroke="#d1d1d1" stroke-width="1" />
<line x1="1211.77" y1="430.00" x2="1211.77" y2="572.00" stroke="#d1d1d1" stroke-width="1" />
<line x1="1300.18" y1="430.00" x2="1300.18" y2="572.00" stroke="#d1d1d1" stroke-width="1" />
<line x1="1388.59" y1="430.00" x2="1388.59" y2="572.00" stroke="#d1d1d1" stroke-width="1" />
<line x1="1477.00" y1="430.00" x2="1477.00" y2="572.00" stroke="#d1d1d1" stroke-width="1" />
<line x1="1565.41" y1="430.00" x2="1565.41" y2="572.00" stroke="#d1d1d1" stroke-width="1" />
<line x1="1653.82" y1="430.00" x2="1653.82" y2="572.00" stroke="#d1d1d1" stroke-width="1" />
<line x1="1742.23" y1="430.00" x2="1742.23" y2="572.00" stroke="#d1d1d1" stroke-width="1" />
<line x1="1830.64" y1="430.00" x2="1830.64" y2="572.00" stroke="#d1d1d1" stroke-width="1" />
<line x1="1088.00" y1="572.00" x2="1866.00" y2="572.00" stroke="#d1d1d1" stroke-width="1" />
<line x1="1088.00" y1="504.38" x2="1866.00" y2="504.38" stroke="#d1d1d1" stroke-width="1" />
<line x1="1088.00" y1="436.76" x2="1866.00" y2="436.76" stroke="#d1d1d1" stroke-width="1" />
<rect x="1088.00" y="430.00" width="778.00" height="142.00" fill="none" stroke="#c9c9c9" stroke-width="2" />
<text x="1078.00" y="578.00" font-family="Arial" font-size="16" fill="#555555" text-anchor="end">0</text>
<text x="1078.00" y="510.38" font-family="Arial" font-size="16" fill="#555555" text-anchor="end">0.5</text>
<text x="1078.00" y="442.76" font-family="Arial" font-size="16" fill="#555555" text-anchor="end">1</text>
<text x="1123.36" y="602.00" font-family="Arial" font-size="16" fill="#555555" text-anchor="middle">-80</text>
<text x="1211.77" y="602.00" font-family="Arial" font-size="16" fill="#555555" text-anchor="middle">-60</text>
<text x="1300.18" y="602.00" font-family="Arial" font-size="16" fill="#555555" text-anchor="middle">-40</text>
<text x="1388.59" y="602.00" font-family="Arial" font-size="16" fill="#555555" text-anchor="middle">-20</text>
<text x="1477.00" y="602.00" font-family="Arial" font-size="16" fill="#555555" text-anchor="middle">0</text>
<text x="1565.41" y="602.00" font-family="Arial" font-size="16" fill="#555555" text-anchor="middle">20</text>
<text x="1653.82" y="602.00" font-family="Arial" font-size="16" fill="#555555" text-anchor="middle">40</text>
<text x="1742.23" y="602.00" font-family="Arial" font-size="16" fill="#555555" text-anchor="middle">60</text>
<text x="1830.64" y="602.00" font-family="Arial" font-size="16" fill="#555555" text-anchor="middle">80</text>
<text x="1477.00" y="622.00" font-family="Arial" font-size="20" fill="black" text-anchor="middle">Lateral position x (mm)</text>
<text x="1052.00" y="501.00" font-family="Arial" font-size="20" fill="black" text-anchor="middle" transform="rotate(-90 1052.00 501.00)">Survival</text>
<line x1="206.82" y1="684.00" x2="206.82" y2="1102.00" stroke="#d1d1d1" stroke-width="1" />
<line x1="403.86" y1="684.00" x2="403.86" y2="1102.00" stroke="#d1d1d1" stroke-width="1" />
<line x1="600.91" y1="684.00" x2="600.91" y2="1102.00" stroke="#d1d1d1" stroke-width="1" />
<line x1="797.95" y1="684.00" x2="797.95" y2="1102.00" stroke="#d1d1d1" stroke-width="1" />
<line x1="995.00" y1="684.00" x2="995.00" y2="1102.00" stroke="#d1d1d1" stroke-width="1" />
<line x1="1192.05" y1="684.00" x2="1192.05" y2="1102.00" stroke="#d1d1d1" stroke-width="1" />
<line x1="1389.09" y1="684.00" x2="1389.09" y2="1102.00" stroke="#d1d1d1" stroke-width="1" />
<line x1="1586.14" y1="684.00" x2="1586.14" y2="1102.00" stroke="#d1d1d1" stroke-width="1" />
<line x1="1783.18" y1="684.00" x2="1783.18" y2="1102.00" stroke="#d1d1d1" stroke-width="1" />
<line x1="128.00" y1="1081.86" x2="1862.00" y2="1081.86" stroke="#d1d1d1" stroke-width="1" />
<line x1="128.00" y1="1031.49" x2="1862.00" y2="1031.49" stroke="#d1d1d1" stroke-width="1" />
<line x1="128.00" y1="981.13" x2="1862.00" y2="981.13" stroke="#d1d1d1" stroke-width="1" />
<line x1="128.00" y1="930.77" x2="1862.00" y2="930.77" stroke="#d1d1d1" stroke-width="1" />
<line x1="128.00" y1="880.41" x2="1862.00" y2="880.41" stroke="#d1d1d1" stroke-width="1" />
<line x1="128.00" y1="830.05" x2="1862.00" y2="830.05" stroke="#d1d1d1" stroke-width="1" />
<line x1="128.00" y1="779.69" x2="1862.00" y2="779.69" stroke="#d1d1d1" stroke-width="1" />
<line x1="128.00" y1="729.33" x2="1862.00" y2="729.33" stroke="#d1d1d1" stroke-width="1" />
<rect x="128.00" y="684.00" width="1734.00" height="418.00" fill="none" stroke="#c9c9c9" stroke-width="2" />
<text x="118.00" y="1087.86" font-family="Arial" font-size="16" fill="#555555" text-anchor="end">2</text>
<text x="118.00" y="1037.49" font-family="Arial" font-size="16" fill="#555555" text-anchor="end">2.5</text>
<text x="118.00" y="987.13" font-family="Arial" font-size="16" fill="#555555" text-anchor="end">3</text>
<text x="118.00" y="936.77" font-family="Arial" font-size="16" fill="#555555" text-anchor="end">3.5</text>
<text x="118.00" y="886.41" font-family="Arial" font-size="16" fill="#555555" text-anchor="end">4</text>
<text x="118.00" y="836.05" font-family="Arial" font-size="16" fill="#555555" text-anchor="end">4.5</text>
<text x="118.00" y="785.69" font-family="Arial" font-size="16" fill="#555555" text-anchor="end">5</text>
<text x="118.00" y="735.33" font-family="Arial" font-size="16" fill="#555555" text-anchor="end">5.5</text>
<text x="206.82" y="1132.00" font-family="Arial" font-size="16" fill="#555555" text-anchor="middle">20</text>
<text x="403.86" y="1132.00" font-family="Arial" font-size="16" fill="#555555" text-anchor="middle">22.5</text>
<text x="600.91" y="1132.00" font-family="Arial" font-size="16" fill="#555555" text-anchor="middle">25</text>
<text x="797.95" y="1132.00" font-family="Arial" font-size="16" fill="#555555" text-anchor="middle">27.5</text>
<text x="995.00" y="1132.00" font-family="Arial" font-size="16" fill="#555555" text-anchor="middle">30</text>
<text x="1192.05" y="1132.00" font-family="Arial" font-size="16" fill="#555555" text-anchor="middle">32.5</text>
<text x="1389.09" y="1132.00" font-family="Arial" font-size="16" fill="#555555" text-anchor="middle">35</text>
<text x="1586.14" y="1132.00" font-family="Arial" font-size="16" fill="#555555" text-anchor="middle">37.5</text>
<text x="1783.18" y="1132.00" font-family="Arial" font-size="16" fill="#555555" text-anchor="middle">40</text>
<text x="995.00" y="1162.00" font-family="Arial" font-size="20" fill="black" text-anchor="middle">Lattice pitch (mm)</text>
<text x="62.00" y="893.00" font-family="Arial" font-size="20" fill="black" text-anchor="middle" transform="rotate(-90 62.00 893.00)">Effective dose (Gy)</text>
<rect x="126.00" y="680.00" width="52.00" height="46.00" fill="white" stroke="black" stroke-width="1.2" />
<text x="152.00" y="711.00" font-family="Arial" font-size="20" font-weight="700" fill="black" text-anchor="middle">(c)</text>
<polyline points="157.27,36.94 162.18,36.94 167.09,36.94 172.00,36.94 176.91,36.94 181.82,36.94 186.73,36.94 191.64,36.94 196.55,36.94 201.45,36.94 206.36,36.94 211.27,36.94 216.18,36.94 221.09,36.94 226.00,36.94 230.91,36.94 235.82,36.94 240.73,36.94 245.64,36.94 250.55,36.94 255.45,36.94 260.36,36.94 265.27,36.94 270.18,36.94 275.09,36.94 280.00,36.94 284.91,36.94 289.82,36.94 294.73,36.94 299.64,36.94 304.55,36.94 309.45,36.94 314.36,36.94 319.27,36.94 324.18,36.94 329.09,36.94 334.00,36.94 338.91,36.94 343.82,36.94 348.73,36.94 353.64,36.94 358.55,36.94 363.45,36.94 368.36,36.94 373.27,36.94 378.18,36.94 383.09,36.94 388.00,36.94 392.91,36.94 397.82,36.94 402.73,36.94 407.64,36.94 412.55,36.94 417.45,36.94 422.36,36.94 427.27,36.94 432.18,36.94 437.09,36.94 442.00,36.94 446.91,36.94 451.82,36.94 456.73,36.94 461.64,36.94 466.55,36.94 471.45,36.94 476.36,36.94 481.27,36.94 486.18,36.94 491.09,36.94 496.00,36.94 500.91,36.94 505.82,36.94 510.73,36.94 515.64,36.94 520.55,36.94 525.45,36.94 530.36,36.94 535.27,36.94 540.18,36.94 545.09,36.94 550.00,268.43 554.91,268.43 559.82,268.43 564.73,268.43 569.64,268.43 574.55,268.43 579.45,268.43 584.36,268.43 589.27,268.43 594.18,268.43 599.09,268.43 604.00,268.43 608.91,268.43 613.82,268.43 618.73,268.43 623.64,268.43 628.55,268.43 633.45,268.43 638.36,268.43 643.27,268.43 648.18,268.43 653.09,268.43 658.00,268.43 662.91,268.43 667.82,268.43 672.73,268.43 677.64,268.43 682.55,268.43 687.45,268.43 692.36,268.43 697.27,268.43 702.18,268.43 707.09,268.43 712.00,268.43 716.91,268.43 721.82,268.43 726.73,268.43 731.64,268.43 736.55,268.43 741.45,268.43 746.36,268.43 751.27,268.43 756.18,268.43 761.09,268.43 766.00,268.43 770.91,268.43 775.82,268.43 780.73,268.43 785.64,268.43 790.55,268.43 795.45,268.43 800.36,268.43 805.27,268.43 810.18,268.43 815.09,268.43 820.00,268.43 824.91,268.43 829.82,268.43 834.73,268.43 839.64,268.43 844.55,268.43 849.45,268.43 854.36,268.43 859.27,268.43 864.18,268.43 869.09,268.43 874.00,268.43 878.91,268.43 883.82,268.43 888.73,268.43 893.64,268.43 898.55,268.43 903.45,268.43 908.36,268.43 913.27,268.43 918.18,268.43 923.09,268.43 928.00,268.43 932.91,268.43 937.82,268.43 942.73,268.43" fill="none" stroke="#34495e" stroke-width="3.0" clip-path="url(#clip_a1)" stroke-linejoin="round" stroke-linecap="round" />
<line x1="550.00" y1="30.00" x2="550.00" y2="280.00" stroke="#7f8c8d" stroke-width="1.4" stroke-dasharray="8 6" />
<polyline points="157.27,571.39 162.18,571.39 167.09,571.39 172.00,571.39 176.91,571.39 181.82,571.39 186.73,571.39 191.64,571.39 196.55,571.39 201.45,571.39 206.36,571.39 211.27,571.39 216.18,571.39 221.09,571.39 226.00,571.39 230.91,571.39 235.82,571.39 240.73,571.39 245.64,571.39 250.55,571.39 255.45,571.39 260.36,571.39 265.27,571.39 270.18,571.39 275.09,571.39 280.00,571.39 284.91,571.39 289.82,571.39 294.73,571.39 299.64,571.39 304.55,571.39 309.45,571.39 314.36,571.39 319.27,571.39 324.18,571.39 329.09,571.39 334.00,571.39 338.91,571.39 343.82,571.39 348.73,571.39 353.64,571.39 358.55,571.39 363.45,571.39 368.36,571.39 373.27,571.39 378.18,571.39 383.09,571.39 388.00,571.39 392.91,571.39 397.82,571.39 402.73,571.39 407.64,571.39 412.55,571.39 417.45,571.39 422.36,571.39 427.27,571.39 432.18,571.39 437.09,571.39 442.00,571.39 446.91,571.39 451.82,571.39 456.73,571.39 461.64,571.39 466.55,571.39 471.45,571.39 476.36,571.39 481.27,571.39 486.18,571.39 491.09,571.39 496.00,571.39 500.91,571.39 505.82,571.39 510.73,571.39 515.64,571.39 520.55,571.39 525.45,571.39 530.36,571.39 535.27,571.39 540.18,571.39 545.09,571.39 550.00,324.94 554.91,324.94 559.82,324.94 564.73,324.94 569.64,324.94 574.55,324.94 579.45,324.94 584.36,324.94 589.27,324.94 594.18,324.94 599.09,324.94 604.00,324.94 608.91,324.94 613.82,324.94 618.73,324.94 623.64,324.94 628.55,324.94 633.45,324.94 638.36,324.94 643.27,324.94 648.18,324.94 653.09,324.94 658.00,324.94 662.91,324.94 667.82,324.94 672.73,324.94 677.64,324.94 682.55,324.94 687.45,324.94 692.36,324.94 697.27,324.94 702.18,324.94 707.09,324.94 712.00,324.94 716.91,324.94 721.82,324.94 726.73,324.94 731.64,324.94 736.55,324.94 741.45,324.94 746.36,324.94 751.27,324.94 756.18,324.94 761.09,324.94 766.00,324.94 770.91,324.94 775.82,324.94 780.73,324.94 785.64,324.94 790.55,324.94 795.45,324.94 800.36,324.94 805.27,324.94 810.18,324.94 815.09,324.94 820.00,324.94 824.91,324.94 829.82,324.94 834.73,324.94 839.64,324.94 844.55,324.94 849.45,324.94 854.36,324.94 859.27,324.94 864.18,324.94 869.09,324.94 874.00,324.94 878.91,324.94 883.82,324.94 888.73,324.94 893.64,324.94 898.55,324.94 903.45,324.94 908.36,324.94 913.27,324.94 918.18,324.94 923.09,324.94 928.00,324.94 932.91,324.94 937.82,324.94 942.73,324.94" fill="none" stroke="#1f77b4" stroke-width="2.6" clip-path="url(#clip_a2)" stroke-linejoin="round" stroke-linecap="round" />
<polyline points="157.27,571.85 162.18,571.85 167.09,571.85 172.00,571.85 176.91,571.85 181.82,571.85 186.73,571.85 191.64,571.85 196.55,571.85 201.45,571.85 206.36,571.85 211.27,571.85 216.18,571.85 221.09,571.85 226.00,571.85 230.91,571.85 235.82,571.85 240.73,571.85 245.64,571.85 250.55,571.85 255.45,571.85 260.36,571.85 265.27,571.85 270.18,571.85 275.09,571.85 280.00,571.85 284.91,571.85 289.82,571.85 294.73,571.85 299.64,571.85 304.55,571.85 309.45,571.85 314.36,571.85 319.27,571.85 324.18,571.85 329.09,571.85 334.00,571.85 338.91,571.85 343.82,571.85 348.73,571.85 353.64,571.85 358.55,571.85 363.45,571.85 368.36,571.85 373.27,571.85 378.18,571.85 383.09,571.85 388.00,571.85 392.91,571.85 397.82,571.85 402.73,571.85 407.64,571.85 412.55,571.85 417.45,571.85 422.36,571.85 427.27,571.85 432.18,571.85 437.09,571.85 442.00,571.85 446.91,571.85 451.82,571.85 456.73,571.85 461.64,571.85 466.55,571.85 471.45,571.85 476.36,571.85 481.27,571.85 486.18,571.85 491.09,571.84 496.00,571.84 500.91,571.84 505.82,571.84 510.73,571.83 515.64,571.83 520.55,571.82 525.45,571.81 530.36,571.80 535.27,571.79 540.18,571.76 545.09,571.73 550.00,436.89 554.91,416.27 559.82,399.06 564.73,384.84 569.64,373.17 574.55,363.60 579.45,355.79 584.36,349.44 589.27,344.29 594.18,340.14 599.09,336.82 604.00,334.17 608.91,332.06 613.82,330.41 618.73,329.11 623.64,328.11 628.55,327.33 633.45,326.73 638.36,326.27 643.27,325.93 648.18,325.67 653.09,325.47 658.00,325.33 662.91,325.22 667.82,325.14 672.73,325.08 677.64,325.04 682.55,325.01 687.45,324.99 692.36,324.98 697.27,324.96 702.18,324.96 707.09,324.95 712.00,324.95 716.91,324.95 721.82,324.94 726.73,324.94 731.64,324.94 736.55,324.94 741.45,324.94 746.36,324.94 751.27,324.94 756.18,324.94 761.09,324.94 766.00,324.94 770.91,324.94 775.82,324.94 780.73,324.94 785.64,324.94 790.55,324.94 795.45,324.94 800.36,324.94 805.27,324.94 810.18,324.94 815.09,324.94 820.00,324.94 824.91,324.94 829.82,324.94 834.73,324.94 839.64,324.94 844.55,324.94 849.45,324.94 854.36,324.94 859.27,324.94 864.18,324.94 869.09,324.94 874.00,324.94 878.91,324.94 883.82,324.94 888.73,324.94 893.64,324.94 898.55,324.94 903.45,324.94 908.36,324.94 913.27,324.94 918.18,324.94 923.09,324.94 928.00,324.94 932.91,324.94 937.82,324.94 942.73,324.94" fill="none" stroke="#d62728" stroke-width="3.0" clip-path="url(#clip_a2)" stroke-linejoin="round" stroke-linecap="round" />
<line x1="550.00" y1="320.00" x2="550.00" y2="572.00" stroke="#7f8c8d" stroke-width="1.4" stroke-dasharray="8 6" />
<circle cx="559.82" cy="399.06" r="5.50" fill="#d62728" />
<circle cx="599.09" cy="336.82" r="5.50" fill="#d62728" />
<text x="583.82" y="387.06" font-family="Arial" font-size="22" fill="#444444" text-anchor="start">0.70</text>
<text x="619.09" y="326.82" font-family="Arial" font-size="22" fill="#444444" text-anchor="start">0.95</text>
<polyline points="1123.36,36.19 1127.78,36.19 1132.20,36.19 1136.62,36.19 1141.05,36.19 1145.47,160.00 1149.89,160.00 1154.31,160.00 1158.73,160.00 1163.15,160.00 1167.57,160.00 1171.99,160.00 1176.41,160.00 1180.83,160.00 1185.25,160.00 1189.67,36.19 1194.09,36.19 1198.51,36.19 1202.93,36.19 1207.35,36.19 1211.77,36.19 1216.19,36.19 1220.61,36.19 1225.03,36.19 1229.45,36.19 1233.88,160.00 1238.30,160.00 1242.72,160.00 1247.14,160.00 1251.56,160.00 1255.98,160.00 1260.40,160.00 1264.82,160.00 1269.24,160.00 1273.66,160.00 1278.08,36.19 1282.50,36.19 1286.92,36.19 1291.34,36.19 1295.76,36.19 1300.18,36.19 1304.60,36.19 1309.02,36.19 1313.44,36.19 1317.86,36.19 1322.28,160.00 1326.70,160.00 1331.12,160.00 1335.55,160.00 1339.97,160.00 1344.39,160.00 1348.81,160.00 1353.23,160.00 1357.65,160.00 1362.07,160.00 1366.49,36.19 1370.91,36.19 1375.33,36.19 1379.75,36.19 1384.17,36.19 1388.59,36.19 1393.01,36.19 1397.43,36.19 1401.85,36.19 1406.27,36.19 1410.69,160.00 1415.11,160.00 1419.53,160.00 1423.95,160.00 1428.38,160.00 1432.80,160.00 1437.22,160.00 1441.64,160.00 1446.06,160.00 1450.48,160.00 1454.90,36.19 1459.32,36.19 1463.74,36.19 1468.16,36.19 1472.58,36.19 1477.00,36.19 1481.42,36.19 1485.84,36.19 1490.26,36.19 1494.68,36.19 1499.10,160.00 1503.52,160.00 1507.94,160.00 1512.36,160.00 1516.78,160.00 1521.20,160.00 1525.62,160.00 1530.05,160.00 1534.47,160.00 1538.89,160.00 1543.31,36.19 1547.73,36.19 1552.15,36.19 1556.57,36.19 1560.99,36.19 1565.41,36.19 1569.83,36.19 1574.25,36.19 1578.67,36.19 1583.09,36.19 1587.51,160.00 1591.93,160.00 1596.35,160.00 1600.77,160.00 1605.19,160.00 1609.61,160.00 1614.03,160.00 1618.45,160.00 1622.88,160.00 1627.30,160.00 1631.72,36.19 1636.14,36.19 1640.56,36.19 1644.98,36.19 1649.40,36.19 1653.82,36.19 1658.24,36.19 1662.66,36.19 1667.08,36.19 1671.50,36.19 1675.92,160.00 1680.34,160.00 1684.76,160.00 1689.18,160.00 1693.60,160.00 1698.02,160.00 1702.44,160.00 1706.86,160.00 1711.28,160.00 1715.70,160.00 1720.12,36.19 1724.55,36.19 1728.97,36.19 1733.39,36.19 1737.81,36.19 1742.23,36.19 1746.65,36.19 1751.07,36.19 1755.49,36.19 1759.91,36.19 1764.33,160.00 1768.75,160.00 1773.17,160.00 1777.59,160.00 1782.01,160.00 1786.43,160.00 1790.85,160.00 1795.27,160.00 1799.69,160.00 1804.11,160.00 1808.53,36.19 1812.95,36.19 1817.38,36.19 1821.80,36.19 1826.22,36.19 1830.64,36.19" fill="none" stroke="#1f77b4" stroke-width="2.6" clip-path="url(#clip_b1)" stroke-linejoin="round" stroke-linecap="round" />
<polyline points="1123.36,159.89 1127.78,159.89 1132.20,159.88 1136.62,159.88 1141.05,159.86 1145.47,93.18 1149.89,85.05 1154.31,79.17 1158.73,75.37 1163.15,73.51 1167.57,73.51 1171.99,75.37 1176.41,79.17 1180.83,85.05 1185.25,93.18 1189.67,159.86 1194.09,159.88 1198.51,159.88 1202.93,159.89 1207.35,159.89 1211.77,159.89 1216.19,159.89 1220.61,159.88 1225.03,159.88 1229.45,159.86 1233.88,93.18 1238.30,85.05 1242.72,79.17 1247.14,75.37 1251.56,73.51 1255.98,73.51 1260.40,75.37 1264.82,79.17 1269.24,85.05 1273.66,93.18 1278.08,159.86 1282.50,159.88 1286.92,159.88 1291.34,159.89 1295.76,159.89 1300.18,159.89 1304.60,159.89 1309.02,159.88 1313.44,159.88 1317.86,159.86 1322.28,93.18 1326.70,85.05 1331.12,79.17 1335.55,75.37 1339.97,73.51 1344.39,73.51 1348.81,75.37 1353.23,79.17 1357.65,85.05 1362.07,93.18 1366.49,159.86 1370.91,159.88 1375.33,159.88 1379.75,159.89 1384.17,159.89 1388.59,159.89 1393.01,159.89 1397.43,159.88 1401.85,159.88 1406.27,159.86 1410.69,93.18 1415.11,85.05 1419.53,79.17 1423.95,75.37 1428.38,73.51 1432.80,73.51 1437.22,75.37 1441.64,79.17 1446.06,85.05 1450.48,93.18 1454.90,159.86 1459.32,159.88 1463.74,159.88 1468.16,159.89 1472.58,159.89 1477.00,159.89 1481.42,159.89 1485.84,159.88 1490.26,159.88 1494.68,159.86 1499.10,93.18 1503.52,85.05 1507.94,79.17 1512.36,75.37 1516.78,73.51 1521.20,73.51 1525.62,75.37 1530.05,79.17 1534.47,85.05 1538.89,93.18 1543.31,159.86 1547.73,159.88 1552.15,159.88 1556.57,159.89 1560.99,159.89 1565.41,159.89 1569.83,159.89 1574.25,159.88 1578.67,159.88 1583.09,159.86 1587.51,93.18 1591.93,85.05 1596.35,79.17 1600.77,75.37 1605.19,73.51 1609.61,73.51 1614.03,75.37 1618.45,79.17 1622.88,85.05 1627.30,93.18 1631.72,159.86 1636.14,159.88 1640.56,159.88 1644.98,159.89 1649.40,159.89 1653.82,159.89 1658.24,159.89 1662.66,159.88 1667.08,159.88 1671.50,159.86 1675.92,93.18 1680.34,85.05 1684.76,79.17 1689.18,75.37 1693.60,73.51 1698.02,73.51 1702.44,75.37 1706.86,79.17 1711.28,85.05 1715.70,93.18 1720.12,159.86 1724.55,159.88 1728.97,159.88 1733.39,159.89 1737.81,159.89 1742.23,159.89 1746.65,159.89 1751.07,159.88 1755.49,159.88 1759.91,159.86 1764.33,93.30 1768.75,85.22 1773.17,79.42 1777.59,75.72 1782.01,73.97 1786.43,74.11 1790.85,76.13 1795.27,80.09 1799.69,86.14 1804.11,94.42 1808.53,159.86 1812.95,159.88 1817.38,159.89 1821.80,159.89 1826.22,159.90 1830.64,159.90" fill="none" stroke="#d62728" stroke-width="3.0" clip-path="url(#clip_b1)" stroke-linejoin="round" stroke-linecap="round" />
<text x="1856.00" y="62.00" font-family="Arial" font-size="22" fill="#444444" text-anchor="end">20 mm</text>
<polyline points="1123.36,360.00 1127.78,360.00 1132.20,360.00 1136.62,360.00 1141.05,360.00 1145.47,360.00 1149.89,360.00 1154.31,360.00 1158.73,360.00 1163.15,360.00 1167.57,360.00 1171.99,360.00 1176.41,360.00 1180.83,360.00 1185.25,360.00 1189.67,236.19 1194.09,236.19 1198.51,236.19 1202.93,236.19 1207.35,236.19 1211.77,236.19 1216.19,236.19 1220.61,236.19 1225.03,236.19 1229.45,236.19 1233.88,360.00 1238.30,360.00 1242.72,360.00 1247.14,360.00 1251.56,360.00 1255.98,360.00 1260.40,360.00 1264.82,360.00 1269.24,360.00 1273.66,360.00 1278.08,360.00 1282.50,360.00 1286.92,360.00 1291.34,360.00 1295.76,360.00 1300.18,360.00 1304.60,360.00 1309.02,360.00 1313.44,360.00 1317.86,360.00 1322.28,236.19 1326.70,236.19 1331.12,236.19 1335.55,236.19 1339.97,236.19 1344.39,236.19 1348.81,236.19 1353.23,236.19 1357.65,236.19 1362.07,236.19 1366.49,360.00 1370.91,360.00 1375.33,360.00 1379.75,360.00 1384.17,360.00 1388.59,360.00 1393.01,360.00 1397.43,360.00 1401.85,360.00 1406.27,360.00 1410.69,360.00 1415.11,360.00 1419.53,360.00 1423.95,360.00 1428.38,360.00 1432.80,360.00 1437.22,360.00 1441.64,360.00 1446.06,360.00 1450.48,360.00 1454.90,236.19 1459.32,236.19 1463.74,236.19 1468.16,236.19 1472.58,236.19 1477.00,236.19 1481.42,236.19 1485.84,236.19 1490.26,236.19 1494.68,236.19 1499.10,360.00 1503.52,360.00 1507.94,360.00 1512.36,360.00 1516.78,360.00 1521.20,360.00 1525.62,360.00 1530.05,360.00 1534.47,360.00 1538.89,360.00 1543.31,360.00 1547.73,360.00 1552.15,360.00 1556.57,360.00 1560.99,360.00 1565.41,360.00 1569.83,360.00 1574.25,360.00 1578.67,360.00 1583.09,360.00 1587.51,236.19 1591.93,236.19 1596.35,236.19 1600.77,236.19 1605.19,236.19 1609.61,236.19 1614.03,236.19 1618.45,236.19 1622.88,236.19 1627.30,236.19 1631.72,360.00 1636.14,360.00 1640.56,360.00 1644.98,360.00 1649.40,360.00 1653.82,360.00 1658.24,360.00 1662.66,360.00 1667.08,360.00 1671.50,360.00 1675.92,360.00 1680.34,360.00 1684.76,360.00 1689.18,360.00 1693.60,360.00 1698.02,360.00 1702.44,360.00 1706.86,360.00 1711.28,360.00 1715.70,360.00 1720.12,236.19 1724.55,236.19 1728.97,236.19 1733.39,236.19 1737.81,236.19 1742.23,236.19 1746.65,236.19 1751.07,236.19 1755.49,236.19 1759.91,236.19 1764.33,360.00 1768.75,360.00 1773.17,360.00 1777.59,360.00 1782.01,360.00 1786.43,360.00 1790.85,360.00 1795.27,360.00 1799.69,360.00 1804.11,360.00 1808.53,360.00 1812.95,360.00 1817.38,360.00 1821.80,360.00 1826.22,360.00 1830.64,360.00" fill="none" stroke="#1f77b4" stroke-width="2.6" clip-path="url(#clip_b2)" stroke-linejoin="round" stroke-linecap="round" />
<polyline points="1123.36,239.67 1127.78,239.92 1132.20,240.41 1136.62,241.18 1141.05,242.25 1145.47,243.68 1149.89,245.51 1154.31,247.83 1158.73,250.71 1163.15,254.29 1167.57,258.70 1171.99,264.13 1176.41,270.79 1180.83,278.95 1185.25,288.89 1189.67,359.85 1194.09,359.87 1198.51,359.88 1202.93,359.89 1207.35,359.89 1211.77,359.89 1216.19,359.89 1220.61,359.88 1225.03,359.87 1229.45,359.85 1233.88,289.15 1238.30,279.35 1242.72,271.38 1247.14,264.97 1251.56,259.89 1255.98,255.91 1260.40,252.90 1264.82,250.72 1269.24,249.32 1273.66,248.63 1278.08,248.63 1282.50,249.32 1286.92,250.72 1291.34,252.90 1295.76,255.91 1300.18,259.89 1304.60,264.98 1309.02,271.38 1313.44,279.36 1317.86,289.15 1322.28,359.85 1326.70,359.87 1331.12,359.88 1335.55,359.89 1339.97,359.89 1344.39,359.89 1348.81,359.89 1353.23,359.88 1357.65,359.87 1362.07,359.85 1366.49,289.15 1370.91,279.36 1375.33,271.38 1379.75,264.98 1384.17,259.89 1388.59,255.91 1393.01,252.90 1397.43,250.72 1401.85,249.32 1406.27,248.63 1410.69,248.63 1415.11,249.32 1419.53,250.72 1423.95,252.90 1428.38,255.91 1432.80,259.89 1437.22,264.98 1441.64,271.38 1446.06,279.36 1450.48,289.15 1454.90,359.85 1459.32,359.87 1463.74,359.88 1468.16,359.89 1472.58,359.89 1477.00,359.89 1481.42,359.89 1485.84,359.88 1490.26,359.87 1494.68,359.85 1499.10,289.15 1503.52,279.36 1507.94,271.38 1512.36,264.98 1516.78,259.89 1521.20,255.91 1525.62,252.90 1530.05,250.72 1534.47,249.32 1538.89,248.63 1543.31,248.63 1547.73,249.32 1552.15,250.72 1556.57,252.90 1560.99,255.91 1565.41,259.89 1569.83,264.98 1574.25,271.38 1578.67,279.36 1583.09,289.15 1587.51,359.85 1591.93,359.87 1596.35,359.88 1600.77,359.89 1605.19,359.89 1609.61,359.89 1614.03,359.89 1618.45,359.88 1622.88,359.87 1627.30,359.85 1631.72,289.15 1636.14,279.36 1640.56,271.38 1644.98,264.98 1649.40,259.89 1653.82,255.91 1658.24,252.90 1662.66,250.72 1667.08,249.32 1671.50,248.63 1675.92,248.63 1680.34,249.32 1684.76,250.72 1689.18,252.90 1693.60,255.91 1698.02,259.89 1702.44,264.97 1706.86,271.38 1711.28,279.35 1715.70,289.15 1720.12,359.85 1724.55,359.87 1728.97,359.88 1733.39,359.89 1737.81,359.89 1742.23,359.89 1746.65,359.89 1751.07,359.88 1755.49,359.87 1759.91,359.85 1764.33,288.88 1768.75,278.94 1773.17,270.78 1777.59,264.11 1782.01,258.68 1786.43,254.25 1790.85,250.66 1795.27,247.74 1799.69,245.40 1804.11,243.52 1808.53,242.04 1812.95,240.90 1817.38,240.04 1821.80,239.42 1826.22,239.03 1830.64,238.84" fill="none" stroke="#d62728" stroke-width="3.0" clip-path="url(#clip_b2)" stroke-linejoin="round" stroke-linecap="round" />
<text x="1856.00" y="262.00" font-family="Arial" font-size="22" fill="#444444" text-anchor="end">30 mm</text>
<polyline points="1123.36,436.76 1127.78,436.76 1132.20,436.76 1136.62,436.76 1141.05,436.76 1145.47,572.00 1149.89,572.00 1154.31,572.00 1158.73,572.00 1163.15,572.00 1167.57,572.00 1171.99,572.00 1176.41,572.00 1180.83,572.00 1185.25,572.00 1189.67,572.00 1194.09,572.00 1198.51,572.00 1202.93,572.00 1207.35,572.00 1211.77,572.00 1216.19,572.00 1220.61,572.00 1225.03,572.00 1229.45,572.00 1233.88,572.00 1238.30,572.00 1242.72,572.00 1247.14,572.00 1251.56,572.00 1255.98,572.00 1260.40,572.00 1264.82,572.00 1269.24,572.00 1273.66,572.00 1278.08,436.76 1282.50,436.76 1286.92,436.76 1291.34,436.76 1295.76,436.76 1300.18,436.76 1304.60,436.76 1309.02,436.76 1313.44,436.76 1317.86,436.76 1322.28,572.00 1326.70,572.00 1331.12,572.00 1335.55,572.00 1339.97,572.00 1344.39,572.00 1348.81,572.00 1353.23,572.00 1357.65,572.00 1362.07,572.00 1366.49,572.00 1370.91,572.00 1375.33,572.00 1379.75,572.00 1384.17,572.00 1388.59,572.00 1393.01,572.00 1397.43,572.00 1401.85,572.00 1406.27,572.00 1410.69,572.00 1415.11,572.00 1419.53,572.00 1423.95,572.00 1428.38,572.00 1432.80,572.00 1437.22,572.00 1441.64,572.00 1446.06,572.00 1450.48,572.00 1454.90,436.76 1459.32,436.76 1463.74,436.76 1468.16,436.76 1472.58,436.76 1477.00,436.76 1481.42,436.76 1485.84,436.76 1490.26,436.76 1494.68,436.76 1499.10,572.00 1503.52,572.00 1507.94,572.00 1512.36,572.00 1516.78,572.00 1521.20,572.00 1525.62,572.00 1530.05,572.00 1534.47,572.00 1538.89,572.00 1543.31,572.00 1547.73,572.00 1552.15,572.00 1556.57,572.00 1560.99,572.00 1565.41,572.00 1569.83,572.00 1574.25,572.00 1578.67,572.00 1583.09,572.00 1587.51,572.00 1591.93,572.00 1596.35,572.00 1600.77,572.00 1605.19,572.00 1609.61,572.00 1614.03,572.00 1618.45,572.00 1622.88,572.00 1627.30,572.00 1631.72,436.76 1636.14,436.76 1640.56,436.76 1644.98,436.76 1649.40,436.76 1653.82,436.76 1658.24,436.76 1662.66,436.76 1667.08,436.76 1671.50,436.76 1675.92,572.00 1680.34,572.00 1684.76,572.00 1689.18,572.00 1693.60,572.00 1698.02,572.00 1702.44,572.00 1706.86,572.00 1711.28,572.00 1715.70,572.00 1720.12,572.00 1724.55,572.00 1728.97,572.00 1733.39,572.00 1737.81,572.00 1742.23,572.00 1746.65,572.00 1751.07,572.00 1755.49,572.00 1759.91,572.00 1764.33,572.00 1768.75,572.00 1773.17,572.00 1777.59,572.00 1782.01,572.00 1786.43,572.00 1790.85,572.00 1795.27,572.00 1799.69,572.00 1804.11,572.00 1808.53,436.76 1812.95,436.76 1817.38,436.76 1821.80,436.76 1826.22,436.76 1830.64,436.76" fill="none" stroke="#1f77b4" stroke-width="2.6" clip-path="url(#clip_b3)" stroke-linejoin="round" stroke-linecap="round" />
<polyline points="1123.36,571.88 1127.78,571.88 1132.20,571.87 1136.62,571.86 1141.05,571.84 1145.47,494.32 1149.89,483.46 1154.31,474.55 1158.73,467.28 1163.15,461.35 1167.57,456.53 1171.99,452.63 1176.41,449.47 1180.83,446.94 1185.25,444.94 1189.67,443.38 1194.09,442.21 1198.51,441.37 1202.93,440.83 1207.35,440.57 1211.77,440.57 1216.19,440.83 1220.61,441.37 1225.03,442.21 1229.45,443.38 1233.88,444.94 1238.30,446.94 1242.72,449.47 1247.14,452.63 1251.56,456.53 1255.98,461.35 1260.40,467.28 1264.82,474.55 1269.24,483.46 1273.66,494.32 1278.08,571.84 1282.50,571.86 1286.92,571.87 1291.34,571.88 1295.76,571.88 1300.18,571.88 1304.60,571.88 1309.02,571.87 1313.44,571.86 1317.86,571.84 1322.28,494.32 1326.70,483.46 1331.12,474.55 1335.55,467.28 1339.97,461.35 1344.39,456.53 1348.81,452.63 1353.23,449.47 1357.65,446.94 1362.07,444.94 1366.49,443.38 1370.91,442.21 1375.33,441.37 1379.75,440.83 1384.17,440.57 1388.59,440.57 1393.01,440.83 1397.43,441.37 1401.85,442.21 1406.27,443.38 1410.69,444.94 1415.11,446.94 1419.53,449.47 1423.95,452.63 1428.38,456.53 1432.80,461.35 1437.22,467.28 1441.64,474.55 1446.06,483.46 1450.48,494.32 1454.90,571.84 1459.32,571.86 1463.74,571.87 1468.16,571.88 1472.58,571.88 1477.00,571.88 1481.42,571.88 1485.84,571.87 1490.26,571.86 1494.68,571.84 1499.10,494.32 1503.52,483.46 1507.94,474.55 1512.36,467.28 1516.78,461.35 1521.20,456.53 1525.62,452.63 1530.05,449.47 1534.47,446.94 1538.89,444.94 1543.31,443.38 1547.73,442.21 1552.15,441.37 1556.57,440.83 1560.99,440.57 1565.41,440.57 1569.83,440.83 1574.25,441.37 1578.67,442.21 1583.09,443.38 1587.51,444.94 1591.93,446.94 1596.35,449.47 1600.77,452.63 1605.19,456.53 1609.61,461.35 1614.03,467.28 1618.45,474.55 1622.88,483.46 1627.30,494.32 1631.72,571.84 1636.14,571.86 1640.56,571.87 1644.98,571.88 1649.40,571.88 1653.82,571.88 1658.24,571.88 1662.66,571.87 1667.08,571.86 1671.50,571.84 1675.92,494.32 1680.34,483.46 1684.76,474.55 1689.18,467.28 1693.60,461.35 1698.02,456.54 1702.44,452.63 1706.86,449.47 1711.28,446.94 1715.70,444.94 1720.12,443.39 1724.55,442.22 1728.97,441.39 1733.39,440.86 1737.81,440.61 1742.23,440.62 1746.65,440.90 1751.07,441.47 1755.49,442.34 1759.91,443.56 1764.33,445.17 1768.75,447.25 1773.17,449.87 1777.59,453.14 1782.01,457.18 1786.43,462.16 1790.85,468.26 1795.27,475.73 1799.69,484.84 1804.11,495.86 1808.53,571.84 1812.95,571.86 1817.38,571.87 1821.80,571.88 1826.22,571.89 1830.64,571.89" fill="none" stroke="#d62728" stroke-width="3.0" clip-path="url(#clip_b3)" stroke-linejoin="round" stroke-linecap="round" />
<text x="1856.00" y="462.00" font-family="Arial" font-size="22" fill="#444444" text-anchor="end">40 mm</text>
<polyline points="206.82,705.63 995.00,984.48 1783.18,1086.77" fill="none" stroke="#d62728" stroke-width="3.4" clip-path="url(#clip_c)" stroke-linejoin="round" stroke-linecap="round" />
<circle cx="206.82" cy="705.63" r="6.00" fill="#d62728" />
<circle cx="995.00" cy="984.48" r="6.00" fill="#d62728" />
<circle cx="1783.18" cy="1086.77" r="6.00" fill="#d62728" />
<text x="200.82" y="683.63" font-family="Arial" font-size="22" fill="#444444" text-anchor="start">SF=0.763</text>
<text x="995.00" y="964.48" font-family="Arial" font-size="22" fill="#444444" text-anchor="middle">SF=0.891</text>
<text x="1743.18" y="1070.77" font-family="Arial" font-size="22" fill="#444444" text-anchor="start">SF=0.932</text>
</svg>
